<svg width="33px" height="33px" viewBox="0 0 33 33" version="1.1" xmlns="http://www.w3.org/2000/svg" xmlns:xlink="http://www.w3.org/1999/xlink"><defs></defs><g id="Page-1" stroke="none" stroke-width="1" fill="none" fill-rule="evenodd"><g id="iconmonstr-linkedin-3" fill-rule="nonzero" fill="#ffffff"><path d="M26.125,0 L6.875,0 C3.078625,0 0,3.078625 0,6.875 L0,26.125 C0,29.921375 3.078625,33 6.875,33 L26.125,33 C29.92275,33 33,29.921375 33,26.125 L33,6.875 C33,3.078625 29.92275,0 26.125,0 Z M11,26.125 L6.875,26.125 L6.875,11 L11,11 L11,26.125 Z M8.9375,9.2565 C7.60925,9.2565 6.53125,8.17025 6.53125,6.831 C6.53125,5.49175 7.60925,4.4055 8.9375,4.4055 C10.26575,4.4055 11.34375,5.49175 11.34375,6.831 C11.34375,8.17025 10.267125,9.2565 8.9375,9.2565 Z M27.5,26.125 L23.375,26.125 L23.375,18.4195 C23.375,13.7885 17.875,14.139125 17.875,18.4195 L17.875,26.125 L13.75,26.125 L13.75,11 L17.875,11 L17.875,13.426875 C19.7945,9.871125 27.5,9.6085 27.5,16.831375 L27.5,26.125 Z" id="Shape"></path></g></g></svg>